<svg width="400" height="400" viewBox="0 0 400 400" fill="none" xmlns="http://www.w3.org/2000/svg">
<path fill-rule="evenodd" clip-rule="evenodd" d="M245.308 18.7673C220.285 -6.25575 179.715 -6.25576 154.692 18.7673L18.7673 154.692C-6.25575 179.715 -6.25576 220.285 18.7673 245.308L154.692 381.233C179.715 406.256 220.285 406.256 245.308 381.233L381.233 245.308C406.256 220.285 406.256 179.715 381.233 154.692L245.308 18.7673ZM144.585 213.208C144.558 217.886 144.639 222.59 145.126 227.268C145.209 228.028 145.313 228.789 145.417 229.546C145.516 230.268 145.615 230.989 145.694 231.702C145.304 231.962 144.915 231.944 144.526 231.927C144.502 231.926 144.478 231.925 144.455 231.924C144.381 231.921 144.307 231.918 144.234 231.918H127.551C127.479 231.918 127.407 231.915 127.335 231.912C127.191 231.906 127.046 231.9 126.902 231.918C126.199 231.999 125.983 231.648 125.956 230.972C125.907 229.582 125.83 228.203 125.752 226.821C125.7 225.891 125.648 224.958 125.604 224.023C125.587 223.655 125.592 223.287 125.598 222.875C125.601 222.651 125.604 222.414 125.604 222.158C124.926 222.391 124.68 222.807 124.449 223.197C124.385 223.305 124.323 223.41 124.253 223.51C121.522 227.403 118.169 230.485 113.6 232.108C110.761 233.135 107.813 233.514 104.839 233.433C100.513 233.324 96.2681 232.594 92.3205 230.648C86.6966 227.89 83.2087 223.537 82.1812 217.291C82.1001 216.804 82.019 216.317 81.5864 215.993V211.126C82.0647 210.875 82.1209 210.414 82.1752 209.967C82.1815 209.916 82.1877 209.865 82.1946 209.814C82.1988 209.783 82.2034 209.751 82.2083 209.72C83.1816 204.015 86.3721 199.851 91.3201 197.012C95.2136 194.768 99.4856 193.605 103.893 192.956C110.274 192.01 116.682 191.929 123.09 192.875C124.388 193.065 124.496 192.983 124.361 191.659C123.982 187.981 122.306 185.224 118.872 183.655C117.25 182.898 115.519 182.439 113.735 182.303C106.705 181.79 99.8101 182.493 93.2398 185.224C92.6964 185.459 92.169 185.71 91.6445 185.959C91.204 186.169 90.7637 186.378 90.3197 186.575C89.9362 186.362 89.9724 186.049 90.005 185.766C90.0138 185.69 90.0223 185.617 90.0223 185.548L90.014 185.24C89.9086 181.343 89.8039 177.469 89.7249 173.57C89.698 172.202 89.7245 172.191 90.9406 171.715L90.9686 171.704C96.2951 169.65 101.838 168.514 107.516 168.027C111.653 167.676 115.79 167.541 119.953 168C124.766 168.541 129.39 169.677 133.608 172.191C139.637 175.787 142.936 181.168 144.153 187.954C144.504 189.82 144.585 191.713 144.585 193.605V213.208ZM102.352 213.965C103.163 216.534 105.11 217.94 107.597 218.535C117.763 221.022 124.09 212.586 124.415 204.934C124.442 204.34 124.253 204.069 123.604 204.042C122.336 203.988 121.074 203.927 119.813 203.867L119.805 203.866C118.541 203.805 117.277 203.745 116.006 203.691C114.384 203.609 112.761 203.799 111.166 204.015C109.003 204.285 106.921 204.853 105.11 206.124C102.568 207.881 101.432 211.072 102.352 213.965ZM203.069 186.873C202.312 186.494 201.609 186.143 200.852 185.818C195.985 183.655 190.902 182.952 185.683 184.169C179.059 185.737 174.571 190.929 173.651 197.661C173.192 200.987 173.3 204.258 174.679 207.341C177.274 213.154 181.979 216.29 188.117 217.291C193.254 218.102 198.229 217.264 203.042 215.398C203.266 215.311 203.49 215.218 203.709 215.127C203.965 215.021 204.214 214.918 204.448 214.83C204.779 214.919 204.785 215.097 204.791 215.263C204.792 215.287 204.793 215.31 204.795 215.333L204.799 215.371C204.844 216.924 204.885 218.475 204.927 220.024C205.012 223.167 205.096 226.307 205.205 229.458C205.232 230.377 204.934 230.783 204.042 231.053C200.662 232.054 197.228 232.703 193.741 233.108C187.116 233.865 180.573 233.46 174.192 231.54C166.946 229.35 160.862 225.456 156.482 219.184C153.454 214.83 151.859 209.964 151.264 204.718C150.696 199.473 151.156 194.363 152.832 189.388C155.86 180.519 161.998 174.517 170.569 170.975C177.112 168.271 183.98 167.433 191.037 167.919C195.282 168.217 199.391 168.974 203.312 170.623C204.803 171.251 204.801 171.271 204.652 172.716L204.637 172.867C204.231 176.788 203.853 180.708 203.474 184.629C203.465 184.75 203.458 184.873 203.451 184.997C203.417 185.594 203.382 186.224 203.069 186.873ZM233.192 179.926C233.078 180.179 232.946 180.472 232.405 180.519V170.785C232.405 169.298 232.405 169.271 230.918 169.271H214.235C212.721 169.271 212.694 169.271 212.694 170.758V230.566C212.694 231.945 212.721 231.972 214.127 231.972H232.919C234.324 231.972 234.325 231.945 234.352 230.568L234.352 204.961C234.352 202.582 234.541 200.23 234.974 197.877C235.487 194.984 236.38 192.226 238.164 189.82C240.868 186.197 245.248 185.278 248.871 186.062C251.791 186.684 253.441 188.793 254.414 191.469C255.252 193.768 255.442 196.201 255.442 198.634V229.918C255.442 230.044 255.445 230.17 255.448 230.296C255.454 230.548 255.46 230.801 255.442 231.053C255.387 231.783 255.766 232 256.415 231.945C256.595 231.927 256.775 231.933 256.956 231.939C257.046 231.942 257.136 231.945 257.226 231.945H276.342C276.883 231.972 277.126 231.702 277.099 231.161C277.081 230.909 277.087 230.657 277.093 230.404C277.096 230.278 277.099 230.152 277.099 230.026C277.099 227.375 277.102 224.727 277.105 222.081C277.111 216.79 277.117 211.504 277.099 206.205C277.099 203.88 277.153 201.555 277.478 199.256C277.856 196.498 278.505 193.849 279.857 191.388C281.155 189.063 282.939 187.224 285.562 186.413C291.483 184.602 296.053 186.63 297.567 192.875C297.972 194.579 298.162 196.282 298.162 198.013V231.242C298.162 231.675 298.324 231.945 298.811 231.945H318.089C319.026 231.945 319.459 231.972 319.658 231.769C319.861 231.562 319.819 231.116 319.819 230.161C319.819 226.573 319.816 222.988 319.813 219.404C319.807 212.239 319.801 205.078 319.819 197.904C319.819 194.984 319.738 192.091 319.576 189.171C319.441 186.413 319.008 183.682 318.251 181.033C316.277 174.003 311.708 169.758 304.543 168.379C300.811 167.676 297.053 167.487 293.268 168.054C287.725 168.893 282.858 171.11 278.884 175.192C277.886 176.211 277.042 177.351 276.2 178.488C275.925 178.86 275.649 179.232 275.369 179.6C275.008 179.324 274.847 178.964 274.69 178.613C274.647 178.517 274.604 178.422 274.557 178.329C272.286 173.786 268.744 170.731 263.986 169.082C259.092 167.378 254.117 167.351 249.115 168.379C242.166 169.812 236.677 173.408 233.243 179.816C233.226 179.851 233.209 179.888 233.192 179.926Z" fill="#5B7CFA"/>
</svg>
