<?xml version="1.0" encoding="utf-8"?>
<!-- Generator: Adobe Illustrator 28.0.0, SVG Export Plug-In . SVG Version: 6.00 Build 0)  -->
<svg version="1.1" id="Layer_1" xmlns="http://www.w3.org/2000/svg" xmlns:xlink="http://www.w3.org/1999/xlink" x="0px" y="0px"
	 viewBox="0 0 397.7 137.1" style="enable-background:new 0 0 397.7 137.1;" xml:space="preserve">
<style type="text/css">
	.st0{fill:#FFFFFF;}
	.st1{fill:#F7DC3C;}
	.st2{fill:#EE4523;}
</style>
<g>
	<path class="st0" d="M217.8,137.1h-21c-2.4,0-4.3-1.9-4.3-4.3V42.9c0-2.4,1.9-4.3,4.3-4.3h21c2.4,0,4.3,1.9,4.3,4.3v89.9
		C222.1,135.2,220.2,137.1,217.8,137.1z"/>
	<path class="st0" d="M144.8,106.9v-64c0-2.4-1.9-4.3-4.3-4.3h-21c-2.4,0-4.3,1.9-4.3,4.3v68.3v21.6c0,2.4,1.9,4.3,4.3,4.3h25.2H182
		c2.4,0,4.3-1.9,4.3-4.3v-17.3c0-2.4-1.9-4.3-4.3-4.3h-33C146.7,111.2,144.8,109.3,144.8,106.9z"/>
	<path class="st0" d="M269.3,38.6c-1.1,0-3.4,0-3.5,0h-10.4h-23.1c-2.4,0-4.3,1.9-4.3,4.3v89.9c0,2.4,1.9,4.3,4.3,4.3h21
		c2.4,0,4.3-1.9,4.3-4.3V108c0-0.8,0.7-1.3,1.4-1.1c10.5,3.1,24.3,3.4,36.2-8.4C320.5,73.2,296.6,38.6,269.3,38.6z M276.7,81.8
		c-11.2,7.9-23.6-4.5-15.7-15.7c0.3-0.4,0.6-0.7,1-1c11.2-7.9,23.6,4.5,15.7,15.7C277.4,81.2,277,81.5,276.7,81.8z"/>
	<path class="st0" d="M396.5,54.2l-14.4-14.4c-1.6-1.6-4.2-1.6-5.9,0l-23,23c-0.6,0.6-1.7,0.6-2.3,0l-23-23c-1.6-1.6-4.2-1.6-5.9,0
		l-14.4,14.4c-1.6,1.6-1.6,4.2,0,5.9l29.6,29.6c0.3,0.3,0.5,0.8,0.5,1.2V133c0,2.3,1.9,4.1,4.1,4.1h20.4c2.3,0,4.1-1.9,4.1-4.1V90.9
		c0-0.5,0.2-0.9,0.5-1.2l29.6-29.6C398.1,58.5,398.1,55.8,396.5,54.2z"/>
	<g>
		<g>
			<g>
				<path class="st1" d="M107.9,133.3L79,88.7c-0.5-0.8-0.5-1.8,0-2.6l27.1-44.6c1-1.7-0.2-3.8-2.1-3.8l-17.1,3.9
					c-13.6,3.1-17.6,11-25.8,22.3c-1.6,2.2-2.6,3.7-2.6,3.7c-1.2,2.3-4.7,1.4-4.7-1.2V29.7c-10.4,0-15.8,3.8-20,7.3
					C20.8,47.7,18,61,18,77.9v56.7c0,1.4,1.1,2.5,2.5,2.5h30.9c1.4,0,2.5-1.1,2.5-2.5v-28.3c0-2.5,3.3-3.4,4.6-1.3L69,135.9
					c0.5,0.8,1.3,1.2,2.1,1.2h34.8C107.8,137.1,109,134.9,107.9,133.3z M46.6,42.7c-1.9,0-3.4-1.5-3.4-3.4s1.5-3.4,3.4-3.4
					s3.4,1.5,3.4,3.4S48.5,42.7,46.6,42.7z"/>
			</g>
			<path class="st2" d="M13.5,62.4c0.3,0.7,2.7-38,40.6-38.3c0,0-30.7-36-42.1-20c0,0-5.6,8.8,5.2,11.6c0,0-17.5,4.6-17.2,16.8
				c0.1,3.8,4,6.3,7.5,4.8c2-0.9,4.6-2.6,7.9-5.7C15.4,31.5,7.7,46.9,13.5,62.4z"/>
		</g>
		<path class="st2" d="M57.9,31.2v9.4c0,0.7,0.7,1.1,1.3,0.7l9-6l-9-4.9C58.6,30.2,57.9,30.6,57.9,31.2z"/>
	</g>
</g>
</svg>
